<svg width="95" height="95" viewBox="0 0 95 95" fill="none" xmlns="http://www.w3.org/2000/svg"><g clip-path="url(#clip0)"><path d="M57.222 16.561c13.87 0 25.238 10.767 26.188 24.384a14.232 14.232 0 0110.957 13.87c0 7.885-6.397 14.25-14.25 14.25-.412 0-.824-.032-1.235-.064a18.539 18.539 0 01-13.047 5.32c-2.755 0-5.351-.601-7.695-1.678-3.261 2.787-7.505 4.497-12.128 4.497-6.397 0-12.002-3.23-15.358-8.107a17.984 17.984 0 01-13.776-6.776 11.67 11.67 0 01-3.958.665C6.302 62.985.95 57.633.95 51.014c0-6.587 5.352-11.938 11.939-11.938 1.393 0 2.723.253 3.958.665a18.033 18.033 0 0115.96-6.682C36.702 23.4 46.17 16.56 57.222 16.56z" stroke="#C8C8C8" stroke-width="3" stroke-miterlimit="10"/></g><defs><clipPath id="clip0"><path fill="#fff" d="M0 0h95v95H0z"/></clipPath></defs></svg>