<svg width="79" height="79" viewBox="0 0 79 79" fill="none" xmlns="http://www.w3.org/2000/svg"><g clip-path="url(#clip0)"><path d="M71.1 56.8a6.558 6.558 0 006.557-6.556c0-3.608-2.95-6.557-6.557-6.557a6.76 6.76 0 00-2.528.5 9.858 9.858 0 00-9.507-7.136c-.605 0-1.21.052-1.79.158v-.158c0-10.929-8.848-19.777-19.777-19.777-8.479 0-15.694 5.346-18.512 12.825a13.39 13.39 0 00-4.003-.606c-7.557 0-13.667 6.11-13.667 13.667 0 7.558 6.11 13.667 13.667 13.667H71.1v-.026z" stroke="#C8C8C8" stroke-width="3" stroke-miterlimit="10"/></g><defs><clipPath id="clip0"><path fill="#fff" d="M0 0h79v79H0z"/></clipPath></defs></svg>