<svg width="106" height="51" viewBox="0 0 106 51" fill="none" xmlns="http://www.w3.org/2000/svg"><path d="M96.448 22.832c-1.232-6.272-6.758-11.014-13.403-11.014-2.838 0-5.45.86-7.616 2.315C71.434 6.928 63.743 2.037 54.895 2.037c-11.76 0-21.466 8.661-23.184 19.936a13.406 13.406 0 00-3.023-.336 13.62 13.62 0 00-12.432 8.027 10.345 10.345 0 00-4.443-1.008c-5.6 0-10.155 4.554-10.155 10.154s4.555 10.155 10.155 10.155h78.96c7.541 0 13.664-6.123 13.664-13.664 0-5.563-3.285-10.304-7.99-12.47z" stroke="#C8C8C8" stroke-width="3" stroke-miterlimit="10"/></svg>